<svg width="900" height="1125" viewBox="0 0 900 1125" fill="none" xmlns="http://www.w3.org/2000/svg">
  <rect width="900" height="1125" fill="#09090B"/>
  <circle cx="226" cy="218" r="260" fill="#0EA5E9" fill-opacity="0.32"/>
  <circle cx="752" cy="798" r="320" fill="#34D399" fill-opacity="0.22"/>
  <circle cx="686" cy="302" r="210" fill="#F59E0B" fill-opacity="0.14"/>
  <path d="M102 884C181 739 300 662 459 662C618 662 739 739 820 884V1125H102V884Z" fill="#18181B"/>
  <circle cx="456" cy="426" r="184" fill="#27272A"/>
  <path d="M300 426C320 326 378 276 456 276C534 276 592 326 612 426C583 504 531 543 456 543C381 543 329 504 300 426Z" fill="#3F3F46"/>
  <rect x="88" y="88" width="724" height="949" rx="56" stroke="white" stroke-opacity="0.12" stroke-width="2"/>
  <path d="M168 952H732" stroke="white" stroke-opacity="0.18" stroke-width="2"/>
  <path d="M168 982H544" stroke="white" stroke-opacity="0.12" stroke-width="2"/>
</svg>
